<?xml version="1.0" encoding="utf-8"?>
<!-- Generator: Adobe Illustrator 26.0.0, SVG Export Plug-In . SVG Version: 6.00 Build 0)  -->
<svg version="1.1" id="Layer_1" xmlns="http://www.w3.org/2000/svg" xmlns:xlink="http://www.w3.org/1999/xlink" x="0px" y="0px"
	 viewBox="0 0 56 56" style="enable-background:new 0 0 56 56;" xml:space="preserve">
<style type="text/css">
	.st0{fill:url(#SVGID_1_);}
	.st1{fill:#FFFFFF;}
</style>
<linearGradient id="SVGID_1_" gradientUnits="userSpaceOnUse" x1="1.3667" y1="27.9686" x2="55.1211" y2="27.9686">
	<stop  offset="0" style="stop-color:#8912FC"/>
	<stop  offset="1" style="stop-color:#7B11D9"/>
</linearGradient>
<path class="st0" d="M46.3,1.1H10.2c-4.9,0-8.8,4-8.8,8.8V46c0,4.9,4,8.8,8.8,8.8h36.1c4.9,0,8.8-4,8.8-8.8V9.9
	C55.1,5,51.2,1.1,46.3,1.1z"/>
<g>
	<g>
		<path class="st1" d="M22.2,33.2L19.5,41h-5.7l10.6-30.7h7.2L42.7,41h-6.1l-2.8-7.8H22.2z M32.5,28.5c-2.4-7-3.9-11.2-4.6-13.8h0
			c-0.8,2.9-2.4,7.8-4.3,13.8H32.5z"/>
	</g>
</g>
</svg>
